# xmcd
#
# Track frame offsets: 
#        150
#        16315
#        33982
#        59675
#        86737
#        116490
#        147002
#        184010
#
# Disc length: 2971 seconds
#
# Revision: 0
# Processed by: cddbd v1.5.2PL0 Copyright (c) Steve Scherf et al.
# Submitted via: ExactAudioCopy v0.90b4
#
DISCID=660b9908
DTITLE=King Mo - Live at La Bonbonnière
DYEAR=2008
DGENRE=Blues
TTITLE0=Buzzin'
TTITLE1=Every Day
TTITLE2=Sugar Rush
TTITLE3=Jesus Just Left Chicago
TTITLE4=Down The Line
TTITLE5=I Don't Need No Doctor
TTITLE6=Little Wing
TTITLE7=Who Knows
EXTD=
EXTT0=
EXTT1=
EXTT2=
EXTT3=
EXTT4=
EXTT5=
EXTT6=
EXTT7=
PLAYORDER=
